<?xml version="1.0" encoding="UTF-8"?> <svg xmlns="http://www.w3.org/2000/svg" height="812" viewBox="0 0 1920 812" width="1920"><path d="m608.83383 710.50023c-112.0863 0-202.95019-95.11348-202.95019-212.44191 0-24.52996 6.22379-48.06854 13.53001-69.96421 45.10906 46.65225 79.36707 69.96421 102.8281 69.96421-108.1048-198.27912-48.70805-283.25588 113.6521-396.55824-13.53001 141.62794 75.65982 206.04033 111.97439 241.81554 81.64366 80.38781 85.57334 214.8357 8.77719 300.29774-38.35072 42.67829-91.83759 66.88185-147.8116 66.88687zm-19.21262-503.20406c-87.70155 77.89537-88.1345 138.42715-20.37621 262.69151 20.59267 37.75801-5.46612 84.72181-47.00328 84.72181-18.61729 0-37.4511-5.66514-57.34018-16.85371 21.03489 83.17573 102.50175 132.75334 181.96129 110.73468 79.45951-22.01872 126.82202-107.29566 105.78711-190.47141-7.11425-28.13096-21.61316-53.61387-41.85395-73.56137-3.40957-3.34242-20.70093-19.40304-21.45861-20.11117-11.47345-10.76373-20.91739-20.30945-30.25311-30.76157-33.28384-37.33312-57.2049-78.74513-69.43603-126.38877h-.02705z" fill="#ff6100"></path><g fill="#1d174f"><path d="m1136.02411 509.63645c-54.42298 0-95.84939-8.12549-124.28046-24.37648-28.42984-16.24976-43.4572-40.62501-45.48799-73.12576h101.12993c.81183 4.46878 2.4367 8.93755 5.27932 13.0003 2.84384 4.06275 6.90542 7.71824 12.18474 10.5629 5.28055 2.84343 12.18474 5.28083 20.30791 6.90618 8.12194 1.62412 18.27589 2.4374 30.05349 2.4374 18.68303 0 32.89856-2.03137 42.64537-6.50015 9.74804-4.46878 14.62145-10.5629 14.62145-18.68839 0-8.12427-5.28055-13.81236-15.84041-17.06305-10.55864-3.24946-28.42984-6.09289-54.01584-8.12427-26.80619-2.03137-49.54957-5.28206-68.2326-9.75084s-33.71039-10.5629-45.48799-17.8751c-11.7776-7.31221-20.30668-16.25099-25.58722-26.81388-5.27932-10.56167-7.71602-23.15594-7.71602-37.78158 0-13.81236 3.24853-26.40663 10.15273-37.78158 6.90542-11.37618 16.65224-21.12579 29.64881-29.25129 12.99657-8.12549 28.83575-14.62564 47.51878-19.09442s39.80153-6.90618 63.76388-6.90618c46.70696 0 83.25996 7.31343 109.65901 21.93785 26.39905 14.62564 41.42641 37.78281 45.08208 69.47027h-98.69323c-4.46749-18.28113-23.1493-27.21869-56.04786-27.21869-33.70916 0-50.76731 7.31221-50.76731 21.93785 0 3.65672.81183 6.50015 2.84262 8.93755s5.68646 4.46878 10.55987 6.50015 11.77883 3.65672 20.30791 4.87481c8.52907 1.21931 19.49485 2.4374 32.89733 3.65672 23.96235 2.03137 45.48799 4.87481 64.16979 8.53152 18.68303 3.65672 34.52221 8.93755 47.51878 15.84373s22.74461 15.84496 29.64881 26.81388c6.9042 10.96893 10.15395 24.37525 10.15395 40.62501 0 14.62564-3.24976 28.03197-10.15395 40.22021-6.9042 12.18824-17.05815 22.74991-30.46063 31.68746-13.40248 8.93878-30.05472 15.84496-49.54957 20.71976-19.49485 4.87481-41.83232 5.68809-67.82546 5.68809z"></path><path d="m1594.55969 215.50438v68.65821h-173.42289v56.46997h150.67951v67.03287h-150.67951v98.3143h-103.97255v-290.47535z"></path><path d="m1773.78921 216.31644c50.3614 0 87.32031 8.53152 110.87675 25.59457 23.55643 17.06305 35.33404 41.84433 35.33404 74.34507v1.62534c0 32.09472-12.18352 57.28326-36.14709 75.56439-23.96235 18.28236-58.89047 27.62594-104.78438 27.62594h-58.48456v84.90797h-103.56664v-290.47534zm32.49142 133.25367c8.52907-6.50015 12.58943-16.25099 12.58943-28.84403v-1.62534c0-12.59427-4.06035-21.93785-12.58943-27.62594-8.52907-5.68809-20.71382-8.53152-36.553-8.53152h-49.54957v76.37645h49.14366c16.2451 0 28.42984-3.24946 36.95892-9.74961z"></path><path d="m1033.94255 573.44237c13.79981 0 23.92678 2.33804 30.38092 7.01413 6.45536 4.67486 9.68304 11.46573 9.68304 20.37139v.44528c0 8.79403-3.33928 15.69653-9.90501 20.70504-6.56573 5.00974-16.13718 7.56981-28.7119 7.56981h-16.02559v23.26634h-28.37956v-79.59402l42.95809.22203zm8.9031 36.5132c2.33737-1.78113 3.44965-4.45283 3.44965-7.90347v-.44528c0-3.45064-1.11227-6.01071-3.44965-7.56981-2.33737-1.5591-5.67542-2.33804-10.0166-2.33804h-13.57662v20.9283h13.46625c4.45155 0 7.7896-.89057 10.12697-2.6717z"></path><path d="m1136.57105 573.22034 34.16658 79.59402h-30.15896l-5.34186-13.47011h-37.83942l-5.45223 13.47011h-26.59894l34.50014-79.59402zm-8.23476 48.86949-11.796-29.61193-12.02042 29.61193h23.81641z"></path><path d="m1212.75758 653.81655c-14.91208 0-26.26415-2.22641-34.05498-6.67924-7.7896-4.45283-11.90759-11.13207-12.46434-20.03773h27.71122c.22319 1.22422.66835 2.44844 1.44706 3.56226.77871 1.11259 1.89222 2.11479 3.33928 2.89373 1.44583.77894 3.33805 1.44748 5.56383 1.89276s5.0083.66731 8.23476.66731c5.1199 0 9.0147-.55568 11.68563-1.78113 2.67093-1.22422 4.0064-2.89373 4.0064-5.12014s-1.44706-3.78552-4.33996-4.67608c-2.8929-.89057-7.79083-1.6695-14.80172-2.22519-7.34445-.55691-13.57662-1.44748-18.69652-2.6717-5.11867-1.22545-9.23666-2.89495-12.46434-4.89934-3.22646-2.00316-5.56383-4.45283-7.01089-7.34655-1.44706-2.89373-2.11418-6.34559-2.11418-10.35313 0-3.78429.89031-7.23615 2.7813-10.35191 1.89222-3.11821 4.56315-5.7899 8.12439-8.01509 3.56124-2.22764 7.9012-4.00877 13.0211-5.23299s10.90569-1.89153 17.47265-1.89153c12.7979 0 22.81328 2.00316 30.04736 6.01071s11.35207 10.35313 12.35275 19.03554h-27.04287c-1.22387-5.00974-6.34254-7.45818-15.35724-7.45818-9.23789 0-13.91141 2.00439-13.91141 6.01071 0 1.00219.22196 1.78113.77871 2.44967s1.55866 1.22422 2.89412 1.78113c1.33547.55691 3.22768 1.00219 5.56383 1.33585 2.33737.33366 5.34186.66731 9.0147 1.00219 6.56573.55568 12.46434 1.33585 17.58302 2.33682 5.1199 1.00219 9.45985 2.44967 13.0211 4.34243 3.56124 1.89153 6.23217 4.3412 8.12439 7.34655 1.89222 3.00658 2.78253 6.67924 2.78253 11.13207 0 4.00755-.89031 7.68144-2.78253 11.02045-1.89222 3.34024-4.67352 6.23396-8.34635 8.68363-3.67284 2.44967-8.23598 4.3412-13.57785 5.67705-5.34186 1.33585-11.46244 1.5591-18.58492 1.5591z"></path><path d="m1304.26701 653.81655c-14.91331 0-26.26415-2.22641-34.05376-6.67924-7.79083-4.45283-11.90882-11.13207-12.46434-20.03773h27.70999c.22319 1.22422.66835 2.44844 1.44706 3.56226.77871 1.11259 1.89222 2.11479 3.33805 2.89373 1.44706.77894 3.33928 1.44748 5.56505 1.89276 2.22578.44528 5.0083.66731 8.23598.66731 5.11867 0 9.01347-.55568 11.6844-1.78113 2.67093-1.22422 4.0064-2.89373 4.0064-5.12014s-1.44583-3.78552-4.33996-4.67608c-2.89412-.89057-7.7896-1.6695-14.80172-2.22519-7.34445-.55691-13.57662-1.44748-18.69652-2.6717-5.11867-1.22545-9.23666-2.89495-12.46434-4.89934-3.22768-2.00316-5.56383-4.45283-7.01089-7.34655-1.44706-2.89373-2.11418-6.34559-2.11418-10.35313 0-3.78429.89031-7.23615 2.78253-10.35191 1.89099-3.11821 4.56192-5.7899 8.12316-8.01509 3.56124-2.22764 7.90242-4.00877 13.0211-5.23299 5.11867-1.22422 10.90691-1.89153 17.47265-1.89153 12.7979 0 22.81451 2.00316 30.04736 6.01071 7.23408 4.00755 11.35207 10.35313 12.35398 19.03554h-27.0441c-1.22387-5.00974-6.34377-7.45818-15.35724-7.45818-9.23666 0-13.91141 2.00439-13.91141 6.01071 0 1.00219.22319 1.78113.77871 2.44967.55675.66854 1.55866 1.22422 2.89412 1.78113 1.33547.55691 3.22646 1.00219 5.56383 1.33585s5.34186.66731 9.0147 1.00219c6.56573.55568 12.46434 1.33585 17.58424 2.33682 5.11867 1.00219 9.45863 2.44967 13.01987 4.34243 3.56124 1.89153 6.23217 4.3412 8.12439 7.34655 1.89222 3.00658 2.78253 6.67924 2.78253 11.13207 0 4.00755-.89031 7.68144-2.78253 11.02045-1.89222 3.34024-4.67474 6.23396-8.34635 8.68363-3.67284 2.44967-8.23598 4.3412-13.57785 5.67705-5.34186 1.33585-11.46244 1.5591-18.58492 1.5591z"></path><path d="m1383.78178 573.22034v79.59402h-28.82472v-79.59402z"></path><path d="m1416.95013 573.22034 22.70291 54.65817 22.70291-54.65817h26.70931l-34.94529 79.59402h-32.38473l-35.50082-79.59402z"></path><path d="m1569.44582 573.22034v18.367h-49.63419v12.13427h42.6233v17.81132h-42.6233v12.9132h51.97156v18.36823h-80.2383v-79.59402z"></path><path d="m1678.82646 573.22034v18.81351h-47.52001v15.47327h41.28784v18.36823h-41.28784v26.939h-28.48993v-79.59402h76.00994z"></path><path d="m1714.65961 573.22034v79.59402h-28.82349v-79.59402z"></path><path d="m1771.74493 573.22034c12.79913 0 22.48095 2.11479 29.04668 6.45599 6.56573 4.34243 9.79341 10.79842 9.79341 19.37042v.44528c0 3.11698-.44516 5.78868-1.22387 8.12549-.77871 2.33804-1.89222 4.34243-3.33805 6.01193-1.44706 1.6695-3.22768 3.11698-5.23149 4.45283-2.00259 1.33585-4.22836 2.44967-6.67733 3.45064l23.14807 31.28143h-31.04927l-18.25136-24.26731h-13.13269v24.26731h-28.37834v-79.59402h45.29423zm-2.22455 37.84905c4.11677 0 7.23285-.78017 9.45863-2.33804 2.22578-1.55788 3.33928-4.00755 3.33928-7.34778v-.44406c0-3.45186-1.1135-5.90031-3.33928-7.34778-2.22578-1.44748-5.23027-2.11479-9.12507-2.11479h-15.24687v19.36919h15.02368l-.11037.22325z"></path><path d="m1898.4437 573.22034v18.367h-49.63419v12.13427h42.6233v17.81132h-42.6233v12.9132h51.97156v18.36823h-80.2383v-79.59402z"></path><path d="m507.3544 761.25c0 14.37916-4.86216 26.43229-14.58644 36.15938s-21.77395 14.59062-36.149 14.59062-26.42468-4.86354-36.149-14.59062c-9.72432-9.72709-14.58644-21.78021-14.58644-36.15938s4.86212-26.43229 14.58644-36.15938 21.77399-14.59062 36.149-14.59062 26.42472 4.86354 36.149 14.59062c9.72428 9.72709 14.58644 21.78021 14.58644 36.15938zm0-710.5c0 14.37914-4.86216 26.43227-14.58644 36.15938s-21.77395 14.59062-36.149 14.59062-26.42468-4.86352-36.149-14.59062c-9.72432-9.72711-14.58644-21.78023-14.58644-36.15938s4.86212-26.43227 14.58644-36.15938 21.77399-14.59062 36.149-14.59062 26.42472 4.86352 36.149 14.59062c9.72428 9.72711 14.58644 21.78023 14.58644 36.15938zm-139.52246 596.3125c0 14.37918-4.86212 26.4323-14.58644 36.15938-9.72432 9.72709-21.77399 14.59062-36.149 14.59062s-26.42468-4.86354-36.149-14.59062c-9.72432-9.72707-14.58644-21.7802-14.58644-36.15938s4.86212-26.4323 14.58644-36.15938c9.72432-9.72707 21.77399-14.59062 36.149-14.59062s26.42468 4.86355 36.149 14.59062 14.58644 21.7802 14.58644 36.15938zm0-482.125c0 14.37914-4.86212 26.43227-14.58644 36.15938s-21.77399 14.59063-36.149 14.59063-26.42468-4.86352-36.149-14.59063-14.58644-21.78023-14.58644-36.15938 4.86212-26.43227 14.58644-36.15938 21.77399-14.59062 36.149-14.59062 26.42468 4.86352 36.149 14.59062c9.72432 9.72711 14.58644 21.78023 14.58644 36.15938zm-12.68386 241.0625c0 14.37918-4.86212 26.4323-14.58644 36.15938-9.72432 9.72707-21.77399 14.59062-36.149 14.59062s-26.42468-4.86355-36.149-14.59062-14.58644-21.7802-14.58644-36.15938 4.86212-26.4323 14.58644-36.15938c9.72432-9.72711 21.77399-14.59062 36.149-14.59062s26.42468 4.86352 36.149 14.59062c9.72432 9.72707 14.58644 21.7802 14.58644 36.15938zm-126.8386 126.875c0 14.37918-4.86212 26.4323-14.58644 36.15938-9.72432 9.72707-21.77399 14.59062-36.149 14.59062s-26.42468-4.86355-36.149-14.59062-14.58644-21.7802-14.58644-36.15938 4.86212-26.4323 14.58644-36.15938c9.72432-9.72707 21.77399-14.59062 36.149-14.59062s26.42468 4.86355 36.149 14.59062 14.58644 21.7802 14.58644 36.15938zm0-253.75c0 14.37914-4.86212 26.43227-14.58644 36.15937-9.72432 9.72711-21.77399 14.59063-36.149 14.59063s-26.42468-4.86352-36.149-14.59063-14.58644-21.78023-14.58644-36.15937 4.86212-26.43227 14.58644-36.15937c9.72432-9.72711 21.77399-14.59063 36.149-14.59063s26.42468 4.86352 36.149 14.59063 14.58644 21.78023 14.58644 36.15937zm-126.8386 126.875c0 14.37918-4.86212 26.4323-14.58644 36.15938-9.72432 9.72707-21.77399 14.59062-36.149 14.59062s-26.42468-4.86355-36.149-14.59062-14.58644-21.7802-14.58644-36.15938 4.86212-26.4323 14.58644-36.15938c9.72432-9.72711 21.77399-14.59062 36.149-14.59062s26.42468 4.86352 36.149 14.59062c9.72432 9.72707 14.58644 21.7802 14.58644 36.15938z"></path></g><path d="m608.83383 710.50023c-112.0863 0-202.95019-95.11348-202.95019-212.44191 0-24.52996 6.22379-48.06854 13.53001-69.96421 45.10906 46.65225 79.36707 69.96421 102.8281 69.96421-108.1048-198.27912-48.70805-283.25588 113.6521-396.55824-13.53001 141.62794 75.65982 206.04033 111.97439 241.81554 81.64366 80.38781 85.57334 214.8357 8.77719 300.29774-38.35072 42.67829-91.83759 66.88185-147.8116 66.88687zm-19.21262-503.20406c-87.70155 77.89537-88.1345 138.42715-20.37621 262.69151 20.59267 37.75801-5.46612 84.72181-47.00328 84.72181-18.61729 0-37.4511-5.66514-57.34018-16.85371 21.03489 83.17573 102.50175 132.75334 181.96129 110.73468 79.45951-22.01872 126.82202-107.29566 105.78711-190.47141-7.11425-28.13096-21.61316-53.61387-41.85395-73.56137-3.40957-3.34242-20.70093-19.40304-21.45861-20.11117-11.47345-10.76373-20.91739-20.30945-30.25311-30.76157-33.28384-37.33312-57.2049-78.74513-69.43603-126.38877h-.02705z" fill="#ff6100"></path></svg> 